#!OML:ASF H:\Terrain\Patient Classification 1\Animal1\Tuesday\Animal1.ASF
:FULLY-SPECIFIED
:DEGREES
2062
root 1.33618 15.056 -0.26176 -710.752 -6.7768 -0.359164
lowerback 21.5149 1.35657 1.79102
upperback 7.28183 2.31708 4.10544
thorax -4.18447 1.08948 2.81847
lowerneck -4.50764 2.68643 -3.93866
upperneck -12.934 3.01702 -7.01419
head -3.35527 1.92388 -1.67121
rclavicle -2.06736e-014 -2.38542e-014
rhumerus -2.77946 -38.978 -10.3313
rradius 47.3721
rwrist -30.9097
rhand -25.0575 31.8349
rfingers 7.12502
rthumb 1.45606 1.86014
lclavicle -2.06736e-014 -2.38542e-014
lhumerus -22.9016 -27.0747 19.7575
lradius 61.0476
lwrist -19.3764
lhand 16.7859 23.2156
lfingers 7.12502
lthumb 41.53 47.9612
rfemur -49.6631 10.1889 25.1578
rtibia 65.3731
rfoot -9.87446 -7.77592
rtoes -25.3566
lfemur -50.9777 -11.5337 -19.7758
ltibia 83.7674
lfoot 40.5374 -12.8256
ltoes 37.8606
2063
root 1.3467 15.086 -0.248185 -710.832 -6.78895 -0.675213
lowerback 21.3648 1.3636 2.17272
upperback 7.26907 2.40779 4.28851
thorax -4.11702 1.1347 2.77808
lowerneck -4.10096 2.6228 -4.00136
upperneck -13.035 2.8894 -7.09195
head -3.46878 1.8764 -1.69656
rclavicle -1.90833e-014 -5.08889e-014
rhumerus -2.72202 -39.2426 -10.4667
rradius 47.0172
rwrist -30.4842
rhand -24.5964 32.3219
rfingers 7.12502
rthumb 1.90138 2.35067
lclavicle -1.90833e-014 -5.08889e-014
lhumerus -22.4532 -27.669 19.395
lradius 60.7987
lwrist -18.8191
lhand 16.5365 23.3599
lfingers 7.12502
lthumb 41.296 48.1815
rfemur -49.0713 10.1738 25.5238
rtibia 64.8607
rfoot -8.9253 -8.57608
rtoes -28.9183
lfemur -50.6157 -11.5521 -19.5046
ltibia 83.5101
lfoot 40.3411 -13.0491
ltoes 37.6708
2064
root 1.35683 15.1021 -0.235332 -710.949 -6.8398 -0.909587
lowerback 21.2259 1.38488 2.49144
upperback 7.27998 2.49918 4.42419
thorax -4.0295 1.18047 2.72282
lowerneck -3.9877 2.60239 -4.1012
upperneck -12.8509 2.8689 -7.07416
head -3.4272 1.86551 -1.67037
rclavicle -9.54166e-015 1.74931e-014
rhumerus -2.70341 -39.3908 -10.5867
rradius 46.7521
rwrist -30.3285
rhand -24.1999 32.5097
rfingers 7.12502
rthumb 2.28432 2.54222
lclavicle -9.54166e-015 1.74931e-014
lhumerus -22.8195 -27.1289 19.7667
lradius 60.85
lwrist -19.4328
lhand 16.5 23.2943
lfingers 7.12502
lthumb 41.2617 48.1269
rfemur -48.4223 10.1382 25.8137
rtibia 64.3972
rfoot -7.57462 -9.84976
rtoes -29.9893
lfemur -50.2595 -11.55 -19.3415
ltibia 83.2911
lfoot 40.373 -13.1522
ltoes 37.6837
2065
root 1.36519 15.1224 -0.225136 -711.042 -6.88842 -0.452738
lowerback 21.0223 1.45559 2.11973
upperback 7.26421 2.50725 4.3807
thorax -3.95742 1.18395 2.8884
lowerneck -4.05197 2.63468 -4.07736
upperneck -12.6302 2.92451 -7.157
head -3.33539 1.8857 -1.69508
rclavicle 2.8625e-014 3.81667e-014
rhumerus -2.75283 -39.182 -10.5952
rradius 46.6781
rwrist -30.6296
rhand -24.0447 32.4553
rfingers 7.12502
rthumb 2.43417 2.48942
lclavicle 2.8625e-014 3.81667e-014
lhumerus -22.3395 -27.3942 19.1846
lradius 60.8011
lwrist -18.901
lhand 17.1173 23.4121
lfingers 7.12502
lthumb 41.8408 48.0552
rfemur -48.1945 10.0485 25.2291
rtibia 64.0143
rfoot -7.48824 -9.97427
rtoes -32.5928
lfemur -49.8888 -11.7004 -19.9268
ltibia 82.9204
lfoot 40.5174 -12.6794
ltoes 38.6988
2066
root 1.37295 15.1489 -0.213397 -711.025 -6.96591 -0.111933
lowerback 20.704 1.52677 1.81163
upperback 7.23765 2.52734 4.36538
thorax -3.83697 1.19351 3.04715
lowerneck -4.06226 2.66412 -3.91019
upperneck -12.5023 2.95322 -7.36558
head -3.283 1.89429 -1.78955
rclavicle -3.18055e-015 6.36111e-015
rhumerus -2.79607 -38.9537 -10.5864
rradius 46.6757
rwrist -30.8173
rhand -23.9565 32.3874
rfingers 7.12502
rthumb 2.51934 2.42249
lclavicle -3.18055e-015 6.36111e-015
lhumerus -22.5556 -26.8889 19.4114
lradius 60.8471
lwrist -19.4329
lhand 17.3703 23.3733
lfingers 7.12502
lthumb 42.0779 47.9372
rfemur -48.1559 10.0578 24.7211
rtibia 63.5013
rfoot -7.1966 -9.65053
rtoes -35.9795
lfemur -49.6051 -11.7823 -20.3738
ltibia 82.5318
lfoot 40.4883 -12.4048
ltoes 39.0143
2067
root 1.38177 15.1725 -0.199346 -710.928 -7.08166 -0.530924
lowerback 20.3712 1.56012 2.22843
upperback 7.2319 2.64395 4.52448
thorax -3.66569 1.25297 2.95922
lowerneck -4.0454 2.61881 -3.9501
upperneck -12.3863 2.90022 -7.3485
head -3.24757 1.86487 -1.77326
rclavicle -1.03368e-014 2.54444e-014
rhumerus -2.88183 -38.9587 -10.6385
rradius 46.6494
rwrist -30.5712
rhand -24.0656 32.4926
rfingers 7.12502
rthumb 2.41398 2.52653
lclavicle -1.03368e-014 2.54444e-014
lhumerus -22.8551 -26.5169 19.5953
lradius 60.9914
lwrist -19.8444
lhand 17.358 23.5243
lfingers 7.12502
lthumb 42.0664 48.092
rfemur -48.025 10.108 25.2338
rtibia 62.8946
rfoot -4.47124 -10.344
rtoes -32.7261
lfemur -49.4828 -11.6718 -19.9646
ltibia 82.2711
lfoot 40.4276 -12.4704
ltoes 38.695
2068
root 1.3927 15.1905 -0.18674 -710.893 -7.12955 -0.894567
lowerback 20.1606 1.55916 2.59208
upperback 7.19035 2.71225 4.69809
thorax -3.59574 1.2882 2.92669
lowerneck -3.93384 2.56841 -4.00945
upperneck -12.3267 2.82629 -7.36817
head -3.24974 1.83074 -1.76935
rclavicle -2.8625e-014 -2.38542e-014
rhumerus -2.85513 -38.8562 -10.7417
rradius 46.5817
rwrist -30.3284
rhand -24.374 31.9785
rfingers 7.12502
rthumb 2.11611 2.00922
lclavicle -2.8625e-014 -2.38542e-014
lhumerus -22.9914 -26.1952 19.6614
lradius 61.04
lwrist -20.0586
lhand 17.3315 23.8114
lfingers 7.12502
lthumb 42.0416 48.3875
rfemur -47.8187 9.94697 25.8416
rtibia 62.2072
rfoot -1.84813 -10.6059
rtoes -30.8004
lfemur -49.3007 -11.6453 -19.622
ltibia 82.0065
lfoot 40.4179 -11.7772
ltoes 39.7917
2069
root 1.4022 15.2184 -0.177454 -711.016 -7.16756 -0.548116
lowerback 20.0516 1.5954 2.28887
upperback 7.15879 2.70021 4.70114
thorax -3.58783 1.28082 3.10654
lowerneck -4.02504 2.54579 -3.98929
upperneck -12.0665 2.80715 -7.50353
head -3.14133 1.81267 -1.80807
rclavicle -5.56597e-015 -1.11319e-014
rhumerus -2.75104 -38.6527 -10.8512
rradius 46.4932
rwrist -30.1967
rhand -24.451 31.1877
rfingers 7.12502
rthumb 2.04175 1.21773
lclavicle -5.56597e-015 -1.11319e-014
lhumerus -22.6924 -26.279 19.4166
lradius 60.8827
lwrist -19.568
lhand 17.2188 24.0528
lfingers 7.12502
lthumb 41.9359 48.6643
rfemur -47.4181 10.1304 25.1277
rtibia 62.1767
rfoot -4.42559 -10.5333
rtoes -38.6149
lfemur -48.8144 -11.8092 -20.0773
ltibia 81.5318
lfoot 40.3619 -11.1296
ltoes 40.5743
2070
root 1.41039 15.2463 -0.165422 -711.092 -7.2565 -0.257636
lowerback 19.8816 1.63775 2.03605
upperback 7.1467 2.7006 4.68131
thorax -3.52434 1.28016 3.23177
lowerneck -4.13668 2.54776 -4.05086
upperneck -11.7671 2.83536 -7.54861
head -3.01739 1.81697 -1.80189
rclavicle 3.89618e-014 1.59028e-015
rhumerus -2.64387 -38.6432 -11.0597
rradius 46.3875
rwrist -29.9261
rhand -24.3966 31.2148
rfingers 7.12502
rthumb 2.09436 1.24536
lclavicle 3.89618e-014 1.59028e-015
lhumerus -22.461 -26.3897 19.1367
lradius 60.7198
lwrist -19.086
lhand 17.1742 24.0911
lfingers 7.12502
lthumb 41.8941 48.7165
rfemur -47.3894 9.92961 24.9311
rtibia 61.9297
rfoot -4.02063 -10.2855
rtoes -38.9805
lfemur -48.4058 -11.9455 -20.4432
ltibia 81.0435
lfoot 40.3042 -11.2747
ltoes 40.0111
2071
root 1.41511 15.27 -0.156288 -711.041 -7.28257 -0.442942
lowerback 19.6327 1.62118 2.22587
upperback 7.0777 2.71155 4.77559
thorax -3.46612 1.28717 3.22624
lowerneck -3.79142 2.53455 -4.11498
upperneck -11.8424 2.78962 -7.52977
head -3.10865 1.80562 -1.79373
rclavicle -1.51076e-014 3.97569e-014
rhumerus -2.7343 -38.4444 -11.156
rradius 46.3923
rwrist -29.9841
rhand -24.3386 31.3066
rfingers 7.12502
rthumb 2.15034 1.33771
lclavicle -1.51076e-014 3.97569e-014
lhumerus -22.4139 -26.4959 18.8741
lradius 60.6502
lwrist -18.8485
lhand 17.019 24.09
lfingers 7.12502
lthumb 41.7486 48.7637
rfemur -47.1259 10.127 24.8985
rtibia 62.114
rfoot -6.72333 -8.73946
rtoes -37.6882
lfemur -48.2313 -11.9672 -20.2353
ltibia 80.6536
lfoot 40.3412 -11.24
ltoes 39.9769
2072
root 1.41775 15.3096 -0.14512 -711.04 -7.25631 -0.503096
lowerback 19.3855 1.59824 2.28539
upperback 6.98888 2.68983 4.83356
thorax -3.43267 1.27776 3.26276
lowerneck -3.32514 2.51509 -4.1378
upperneck -11.9763 2.72559 -7.47072
head -3.24307 1.78659 -1.78318
rclavicle 3.97569e-015 2.54444e-014
rhumerus -2.77457 -38.2743 -11.3224
rradius 46.2588
rwrist -29.9948
rhand -24.0531 31.4492
rfingers 7.12502
rthumb 2.4261 1.48323
lclavicle 3.97569e-015 2.54444e-014
lhumerus -22.0914 -27.2091 18.1676
lradius 60.6788
lwrist -17.9359
lhand 16.8112 24.4284
lfingers 7.12502
lthumb 41.5537 49.1662
rfemur -47.0933 10.2261 24.8001
rtibia 62.0522
rfoot -8.61949 -5.67397
rtoes -28.9256
lfemur -47.8863 -12.045 -20.1648
ltibia 80.2179
lfoot 40.3276 -11.5499
ltoes 39.0545
2073
root 1.4235 15.3499 -0.129976 -710.989 -7.29895 -0.474964
lowerback 19.0206 1.61346 2.22768
upperback 6.92539 2.68871 4.88256
thorax -3.31667 1.27798 3.35408
lowerneck -3.12143 2.57303 -4.07204
upperneck -11.8575 2.79111 -7.55183
head -3.23604 1.81834 -1.8236
rclavicle 1.43125e-014 4.6118e-014
rhumerus -2.5932 -38.4053 -11.6292
rradius 46.0319
rwrist -29.6506
rhand -23.591 31.7611
rfingers 7.12502
rthumb 2.87232 1.80072
lclavicle 1.43125e-014 4.6118e-014
lhumerus -22.4508 -26.8234 18.4177
lradius 60.736
lwrist -18.365
lhand 16.9551 24.4706
lfingers 7.12502
lthumb 41.6887 49.1641
rfemur -47.1467 10.2925 24.6421
rtibia 61.9627
rfoot -9.00871 -3.39587
rtoes -17.9047
lfemur -47.6026 -12.1232 -20.1921
ltibia 79.8513
lfoot 40.2587 -12.1023
ltoes 37.6047
2074
root 1.43753 15.3607 -0.115307 -710.885 -7.32719 -0.603066
lowerback 18.6668 1.6227 2.41243
upperback 6.83341 2.72743 5.00487
thorax -3.23009 1.29895 3.37718
lowerneck -2.92212 2.57288 -4.14357
upperneck -11.7502 2.78136 -7.5846
head -3.23674 1.81717 -1.82343
rclavicle 1.59028e-014 -6.36111e-015
rhumerus -2.72113 -38.1008 -11.5008
rradius 46.0598
rwrist -29.8072
rhand -23.1129 31.6167
rfingers 7.12502
rthumb 3.33412 1.66305
lclavicle 1.59028e-014 -6.36111e-015
lhumerus -22.0095 -27.2038 18.0947
lradius 60.4299
lwrist -17.8843
lhand 17.5605 24.3382
lfingers 7.12502
lthumb 42.2561 48.8419
rfemur -46.869 10.1506 24.8931
rtibia 61.7141
rfoot -8.28954 -4.48452
rtoes -25.7336
lfemur -47.6067 -12.1741 -20.0665
ltibia 79.6837
lfoot 40.1835 -12.2454
ltoes 37.3098
2075
root 1.45073 15.3685 -0.101005 -710.931 -7.32458 -0.8608
lowerback 18.4742 1.59175 2.79083
upperback 6.77939 2.75152 5.13698
thorax -3.17655 1.31339 3.30183
lowerneck -2.58317 2.50794 -4.24152
upperneck -11.8234 2.66162 -7.59266
head -3.32945 1.771 -1.81682
rclavicle 3.10104e-014 4.13472e-014
rhumerus -2.99389 -37.5117 -11.2944
rradius 46.179
rwrist -30.2798
rhand -22.9427 31.4346
rfingers 7.12502
rthumb 3.49841 1.48358
lclavicle 3.10104e-014 4.13472e-014
lhumerus -22.1815 -26.8693 18.3484
lradius 60.3309
lwrist -18.3534
lhand 17.6778 24.0065
lfingers 7.12502
lthumb 42.366 48.4728
rfemur -46.3344 9.97819 25.3589
rtibia 61.3979
rfoot -7.48135 -6.09404
rtoes -33.3015
lfemur -47.4132 -12.2804 -19.8257
ltibia 79.5809
lfoot 40.036 -12.4817
ltoes 36.8023
